<svg xmlns="http://www.w3.org/2000/svg" viewBox="0 0 800 800">
  <defs><linearGradient id="g" x1="0" x2="1"><stop offset="0" stop-color="#8cc2ef"/><stop offset="1" stop-color="#2f6fb4"/></linearGradient></defs>
  <g fill="none" stroke="#a8d2f3" stroke-width="6" opacity=".24">
    <circle cx="400" cy="400" r="250"/><circle cx="400" cy="400" r="220"/><circle cx="400" cy="400" r="190"/>
    <path d="M170 225H630M170 575H630M220 150V650"/>
  </g>
  <g fill="none" stroke="url(#g)" stroke-width="18" stroke-linecap="round" stroke-linejoin="round">
    <rect x="190" y="170" width="260" height="220" rx="22"/>
    <path d="M190 240h260M255 145v50M385 145v50"/>
    <path d="M235 290h55M320 290h55M235 340h55"/>
    <circle cx="535" cy="285" r="88"/><circle cx="535" cy="285" r="32"/>
    <path d="M535 240v50l35 28"/>
    <path d="M220 470l70-45 80 70 85-105 70 38"/>
    <circle cx="220" cy="470" r="8"/><circle cx="290" cy="425" r="8"/><circle cx="370" cy="495" r="8"/><circle cx="455" cy="390" r="8"/><circle cx="525" cy="428" r="8"/>
    <path d="M600 470l40 40M600 510l40-40"/>
  </g>
</svg>