<svg xmlns="http://www.w3.org/2000/svg" viewBox="0 0 800 800">
  <defs><linearGradient id="g" x1="0" x2="1"><stop offset="0" stop-color="#8cc2ef"/><stop offset="1" stop-color="#2f6fb4"/></linearGradient></defs>
  <g fill="none" stroke="#a8d2f3" stroke-width="6" opacity=".24">
    <circle cx="400" cy="400" r="245"/><circle cx="400" cy="400" r="215"/><circle cx="400" cy="400" r="185"/>
    <path d="M150 260H650M150 540H650M180 180L620 620"/>
  </g>
  <g fill="none" stroke="url(#g)" stroke-width="18" stroke-linecap="round" stroke-linejoin="round">
    <rect x="210" y="230" width="220" height="155" rx="20"/>
    <path d="M240 275h120M240 315h150M240 355h90"/>
    <rect x="450" y="265" width="135" height="95" rx="14"/>
    <circle cx="517" cy="312" r="22"/>
    <path d="M300 430v100M255 465h90"/>
    <path d="M440 465h160M440 505h120M440 545h150"/>
    <circle cx="265" cy="570" r="44"/><circle cx="355" cy="570" r="32"/>
    <path d="M307 540l28-40 26 18"/>
  </g>
</svg>